<?xml version="1.0" standalone="no"?>
<!DOCTYPE svg PUBLIC "-//W3C//DTD SVG 20010904//EN"
 "http://www.w3.org/TR/2001/REC-SVG-20010904/DTD/svg10.dtd">
<svg version="1.0" xmlns="http://www.w3.org/2000/svg"
 width="348.000000pt" height="348.000000pt" viewBox="0 0 348.000000 348.000000"
 preserveAspectRatio="xMidYMid meet">

<g transform="translate(0.000000,348.000000) scale(0.100000,-0.100000)"
fill="#000000" stroke="none">
<path d="M1465 3465 c-186 -30 -337 -80 -515 -171 -740 -380 -1105 -1213 -885
-2019 139 -513 533 -952 1030 -1150 181 -72 370 -112 575 -121 756 -35 1448
428 1713 1146 34 92 78 273 92 375 l6 50 -49 -74 c-213 -316 -519 -523 -895
-603 -132 -27 -376 -30 -513 -5 -184 34 -378 112 -539 218 -99 66 -304 269
-367 365 -109 164 -181 333 -219 514 -31 149 -32 401 -1 547 81 376 293 691
602 894 41 27 68 49 60 48 -8 -1 -51 -7 -95 -14z"/>
</g>
</svg>
