<svg width="80" height="80" viewBox="0 0 80 80" fill="none" xmlns="http://www.w3.org/2000/svg">
<path d="M76.8889 36.8889H43.1111V3.11111C43.1111 1.39289 41.7182 0 40 0C38.2818 0 36.8889 1.39289 36.8889 3.11111V36.8889H3.11111C1.39289 36.8889 0 38.2818 0 40C0 41.7182 1.39289 43.1111 3.11111 43.1111H36.8889V76.8889C36.8889 78.6071 38.2818 80 40 80C41.7182 80 43.1111 78.6071 43.1111 76.8889V43.1111H76.8889C78.6071 43.1111 80 41.7182 80 40C80 38.2818 78.6071 36.8889 76.8889 36.8889Z" fill="#8E8E93" fill-opacity="0.5"/>
</svg>
